<svg xmlns="http://www.w3.org/2000/svg" xmlns:xlink="http://www.w3.org/1999/xlink" width="55" height="55" viewBox="0 0 55 55"><defs><style>.a{clip-path:url(#b);}.b{fill:#fff;}.c{fill:rgba(255,255,255,0);}</style><clipPath id="b"><rect width="55" height="55"/></clipPath></defs><g id="a" class="a"><rect class="c" width="55" height="55"/><g transform="translate(6.206 6.206)"><path class="b" d="M14.493,19.125A20.655,20.655,0,0,1,8.937,31.85a17.986,17.986,0,0,0,9.726,3.817V19.125Z" transform="translate(1.253 3.548)"/><path class="b" d="M19.125,35.666a17.994,17.994,0,0,0,9.744-3.834,20.637,20.637,0,0,1-5.54-12.707h-4.2Z" transform="translate(3.548 3.548)"/><path class="b" d="M18.647,3.375a17.792,17.792,0,0,0-9.64,3.756,20.652,20.652,0,0,1,5.488,12.785h4.152Z" transform="translate(1.269)"/><path class="b" d="M23.321,19.916A20.657,20.657,0,0,1,28.791,7.14a17.911,17.911,0,0,0-9.666-3.765V19.916Z" transform="translate(3.548)"/><g transform="translate(3.375 9.061)"><path class="b" d="M29.6,8.03a17.7,17.7,0,0,0-3.455,5.419,17.381,17.381,0,0,0-1.258,5.419h9.485A17.968,17.968,0,0,0,29.6,8.03Z" transform="translate(1.47 -8.012)"/><path class="b" d="M26.138,24.389a17.636,17.636,0,0,0,3.524,5.5,17.857,17.857,0,0,0,4.7-10.76H24.9A17.64,17.64,0,0,0,26.138,24.389Z" transform="translate(1.473 -5.513)"/><path class="b" d="M11.637,13.452A17.83,17.83,0,0,0,8.165,8.016a17.984,17.984,0,0,0-4.79,10.855h9.52A17.818,17.818,0,0,0,11.637,13.452Z" transform="translate(-3.375 -8.016)"/><path class="b" d="M8.087,29.9a17.708,17.708,0,0,0,3.541-5.514,17.653,17.653,0,0,0,1.249-5.264h-9.5A17.914,17.914,0,0,0,8.087,29.9Z" transform="translate(-3.375 -5.513)"/></g></g></g></svg>