<svg xmlns="http://www.w3.org/2000/svg" xmlns:xlink="http://www.w3.org/1999/xlink" width="200" height="200" viewBox="0 0 200 200"><defs><style>.a{clip-path:url(#b);}.b{fill:rgba(255,255,255,0);}</style><clipPath id="b"><rect width="200" height="200"/></clipPath></defs><g id="a" class="a"><rect class="b" width="200" height="200"/><path d="M33.6,19.125A91.661,91.661,0,0,1,8.937,75.593,79.818,79.818,0,0,0,52.1,92.53v-73.4Z" transform="translate(42.165 86.992)"/><path d="M19.125,92.53a79.851,79.851,0,0,0,43.24-17.013A91.583,91.583,0,0,1,37.782,19.125H19.125Z" transform="translate(86.992 86.992)"/><path d="M51.788,3.375A78.958,78.958,0,0,0,9.007,20.044,91.648,91.648,0,0,1,33.361,76.78H51.788Z" transform="translate(42.095 17.103)"/><path d="M37.744,76.78a91.672,91.672,0,0,1,24.277-56.7,79.483,79.483,0,0,0-42.9-16.707v73.4Z" transform="translate(86.992 17.103)"/><g transform="translate(20.478 45.711)"><path d="M45.8,8.03A78.546,78.546,0,0,0,30.465,32.077a77.134,77.134,0,0,0-5.582,24.048H66.977A79.736,79.736,0,0,0,45.8,8.03Z" transform="translate(92.067 -7.953)"/><path d="M30.4,42.485A78.264,78.264,0,0,0,46.04,66.876,79.246,79.246,0,0,0,66.914,19.125H24.9A78.282,78.282,0,0,0,30.4,42.485Z" transform="translate(92.13 41.281)"/><path d="M40.039,32.14A79.126,79.126,0,0,0,24.632,8.016,79.808,79.808,0,0,0,3.375,56.188H45.621A79.072,79.072,0,0,0,40.039,32.14Z" transform="translate(-3.375 -8.016)"/><path d="M24.288,66.953A78.584,78.584,0,0,0,40,42.485a78.341,78.341,0,0,0,5.544-23.36H3.375A79.5,79.5,0,0,0,24.288,66.953Z" transform="translate(-3.375 41.281)"/></g></g></svg>