<svg xmlns="http://www.w3.org/2000/svg" xmlns:xlink="http://www.w3.org/1999/xlink" width="32" height="32" viewBox="0 0 32 32"><defs><style>.a{clip-path:url(#b);}.b{fill:#fff;}.c{fill:rgba(255,255,255,0);}</style><clipPath id="b"><rect width="32" height="32"/></clipPath></defs><g id="a" class="a"><rect class="c" width="32" height="32"/><path class="b" d="M3,6H28.357V22.9H3V6m12.678,4.226a4.226,4.226,0,1,1-4.226,4.226,4.226,4.226,0,0,1,4.226-4.226M8.635,8.817a2.817,2.817,0,0,1-2.817,2.817V17.27a2.817,2.817,0,0,1,2.817,2.817H22.722a2.817,2.817,0,0,1,2.817-2.817V11.635a2.817,2.817,0,0,1-2.817-2.817Z" transform="translate(0.321 1.548)"/></g></svg>