<svg xmlns="http://www.w3.org/2000/svg" xmlns:xlink="http://www.w3.org/1999/xlink" width="32" height="32" viewBox="0 0 32 32"><defs><style>.a{clip-path:url(#b);}.b{fill:#fff;}.c{fill:rgba(255,255,255,0);}</style><clipPath id="b"><rect width="32" height="32"/></clipPath></defs><g id="a" class="a"><rect class="c" width="32" height="32"/><path class="b" d="M16.85,2V3.35H15.5v8.1H14.15V12.8h-2.7v1.35H10.1V15.5H8.75v1.35H6.05V15.5H4.7V14.15H3.35v-2.7H2v8.1H3.35V20.9H4.7v1.35H6.05V23.6H7.4V29h2.7V27.65H8.75V26.3H10.1V24.95h1.35V23.6H12.8v1.35h1.35V29h2.7V27.65H15.5v-5.4h1.35V20.9H18.2V19.55h1.35V15.5H20.9v1.35h1.35v-2.7h-2.7v-2.7H26.3V10.1H22.25V8.75H29V3.35H27.65V2M18.2,3.35h1.35V4.7H18.2Z" transform="translate(1 1)"/></g></svg>