<svg xmlns="http://www.w3.org/2000/svg" xmlns:xlink="http://www.w3.org/1999/xlink" width="32" height="32" viewBox="0 0 32 32"><defs><style>.a{clip-path:url(#b);}.b{fill:#fff;}.c{fill:rgba(255,255,255,0);}</style><clipPath id="b"><rect width="32" height="32"/></clipPath></defs><g id="a" class="a"><rect class="c" width="32" height="32"/><path class="b" d="M31.994,6.911a12.472,12.472,0,0,1-3.581,1A6.258,6.258,0,0,0,31.15,4.451,12.579,12.579,0,0,1,27.19,5.98,6.15,6.15,0,0,0,22.59,4a6.238,6.238,0,0,0-6.216,6.245,6.491,6.491,0,0,0,.16,1.427A17.752,17.752,0,0,1,3.665,5.15,6.221,6.221,0,0,0,5.6,13.462a6.176,6.176,0,0,1-2.839-.728v.044a6.25,6.25,0,0,0,5.008,6.129,6.123,6.123,0,0,1-2.81.1,6.23,6.23,0,0,0,5.823,4.338,12.405,12.405,0,0,1-7.759,2.679,12.7,12.7,0,0,1-1.485-.087,17.679,17.679,0,0,0,9.579,2.81c11.471,0,17.775-9.521,17.775-17.775,0-.277,0-.539-.015-.815A12.478,12.478,0,0,0,31.994,6.911Z" transform="translate(-0.767 -0.374)"/></g></svg>